PathFileType  4	(X/Y/Z) C:\Users\antoi\Documents\MyRepositories\mobilecap\ResultsAnalysis
DataRate	CameraRate	NumFrames	NumMarkers	Units	OrigDataRate	OrigDataStartFrame	OrigNumFrames
100.0	100.0	6	51	mm	100.0	20	158
Frame#	Time	r_knee			r_shank_antsup			r_ankle			r_calc			r_5meta			r_toe			L_knee			L_shank_antsup			L_ankle			L_calc			L_5meta			L_toe			r_sh2			r_sh3			r_sh4			L_sh2			L_sh3			r_thigh1			r_thigh2			r_thigh3			r_thigh4			r_thigh5			L_thigh1			L_thigh2			L_thigh3			L_thigh4			r.ASIS			r.PSIS			L.ASIS			L.PSIS			C7			R_Shoulder			L_Shoulder			R_Sternum			L_Sternum			R_humerus			R_elbow_med			R_elbow_lat			R_forearm			R_wrist_radius			R_wrist_ulna			L_humerus			L_elbow_med			L_elbow_lat			L_forearm			L_wrist_radius			L_wrist_ulna			R_HJC			L_HJC			R_HJC_reg			L_HJC_reg			
		X1	Y1	Z1	X2	Y2	Z2	X3	Y3	Z3	X4	Y4	Z4	X5	Y5	Z5	X6	Y6	Z6	X7	Y7	Z7	X8	Y8	Z8	X9	Y9	Z9	X10	Y10	Z10	X11	Y11	Z11	X12	Y12	Z12	X13	Y13	Z13	X14	Y14	Z14	X15	Y15	Z15	X16	Y16	Z16	X17	Y17	Z17	X18	Y18	Z18	X19	Y19	Z19	X20	Y20	Z20	X21	Y21	Z21	X22	Y22	Z22	X23	Y23	Z23	X24	Y24	Z24	X25	Y25	Z25	X26	Y26	Z26	X27	Y27	Z27	X28	Y28	Z28	X29	Y29	Z29	X30	Y30	Z30	X31	Y31	Z31	X32	Y32	Z32	X33	Y33	Z33	X34	Y34	Z34	X35	Y35	Z35	X36	Y36	Z36	X37	Y37	Z37	X38	Y38	Z38	X39	Y39	Z39	X40	Y40	Z40	X41	Y41	Z41	X42	Y42	Z42	X43	Y43	Z43	X44	Y44	Z44	X45	Y45	Z45	X46	Y46	Z46	X47	Y47	Z47	X48	Y48	Z48	X49	Y49	Z49	X50	Y50	Z50	X51	Y51	Z51	

20	0.19000000	175.72308	546.13212	-184.43202	213.04509	419.48155	-200.73115	117.92575	94.27386	-225.55578	55.31162	65.78469	-278.52283	244.34560	35.41898	-169.16261	289.63882	59.54609	-237.39812	44.82137	524.64926	-556.43108	14.15967	417.59122	-538.99303	-300.61755	276.52706	-492.76544	-338.22908	321.59759	-429.75855	-320.27955	117.33121	-520.26259	-277.56960	97.28733	-458.86284	214.54813	308.03444	-225.96879	150.62722	407.45547	-157.29573	158.31480	290.70616	-165.64969	-43.15128	481.35543	-568.14755	-123.09570	389.78191	-571.23351	221.69107	792.24496	-187.58971	241.63502	682.62666	-206.34495	218.38125	645.70317	-154.49448	135.85557	761.16535	-119.48073	161.01214	649.27504	-144.74311	111.72939	773.94376	-556.80109	132.23286	638.05668	-565.08261	2.68420	755.36561	-563.20378	21.79368	619.38234	-566.90142	138.00839	1039.91209	-204.67236	-75.09012	1068.58883	-270.49442	110.90947	1017.59060	-466.83176	-85.04655	1063.85290	-366.61158	12.72214	1567.39182	-322.84590	66.92695	1482.24094	-138.81249	88.41322	1518.44499	-498.62288	144.42557	1478.34142	-295.88889	144.16340	1478.12738	-343.25086	58.15940	1310.99704	-71.98599	-39.93244	1099.70488	-123.04444	-23.43080	1119.51481	-43.49122	67.88586	970.07254	-32.60059	97.31673	851.74856	-23.98715	63.71604	842.54462	1.03512	82.69578	1346.17792	-584.48907	-22.41554	1146.26841	-554.96757	18.46602	1159.83129	-625.39494	91.16280	1008.58229	-608.65495	103.03031	890.35536	-636.92627	76.50645	898.10281	-677.16309	52.09902	958.32615	-224.86614	32.98922	930.77446	-435.62164	61.46066	953.87747	-230.32712	43.49043	945.32258	-403.75785	
21	0.20000000	180.18538	546.03540	-183.69804	216.15581	418.98323	-200.16189	118.08638	94.49892	-225.45720	55.25830	66.16136	-278.32859	244.37317	35.34738	-169.07324	289.71592	59.39834	-237.29876	67.07726	527.56650	-557.12127	36.96855	420.58372	-539.40287	-278.91328	282.49140	-490.84571	-315.55007	327.02987	-427.06717	-298.85744	123.73647	-519.90470	-255.53176	102.89087	-459.18084	216.54981	307.52494	-225.57276	153.57623	407.41279	-156.74698	160.23711	290.59528	-165.20291	-19.98388	484.72939	-568.52085	-100.61868	393.72900	-570.89851	229.60398	791.84622	-187.04420	247.85199	681.74691	-205.93410	224.61856	645.27513	-153.82956	143.83930	761.76047	-118.41749	167.34728	649.53541	-143.76856	126.58602	777.43851	-556.81917	150.76591	642.29234	-565.67327	18.09720	756.92363	-561.74108	40.72709	621.11509	-566.37076	148.45009	1041.32879	-203.48009	-64.96118	1070.12021	-268.87224	121.04164	1019.54317	-465.66871	-75.04538	1065.11196	-364.88700	23.22526	1568.93808	-321.15512	78.02864	1483.24089	-137.51054	97.75898	1520.00608	-497.70211	154.99710	1479.64381	-294.98377	154.48512	1479.55029	-342.41103	70.28233	1311.95432	-70.84620	-27.68423	1100.28675	-120.64081	-10.03978	1120.09310	-41.44195	82.29137	971.34472	-31.93487	112.68988	853.31820	-23.80651	79.50601	843.83997	1.74122	88.98925	1347.62652	-584.02975	-17.73348	1149.01268	-552.34611	21.55262	1162.29864	-623.72993	92.02414	1009.76456	-609.23606	100.69088	891.25253	-638.30869	74.06634	900.22826	-678.35823	62.58090	959.74007	-223.64107	43.15448	932.51362	-434.40883	71.74835	955.95440	-228.82880	53.53501	946.90411	-402.22280	
22	0.21000000	184.39259	545.93379	-182.95110	218.97762	418.51607	-199.46909	118.24627	94.74909	-225.36553	55.22572	66.50824	-278.16252	244.38249	35.27231	-168.97183	289.80651	59.26944	-237.21168	88.98905	530.89181	-557.46532	59.51378	424.09847	-539.68493	-256.99632	287.36981	-488.87260	-293.48816	330.82586	-424.51079	-275.05964	128.82270	-519.42608	-231.04568	107.89488	-459.23418	218.34597	307.04387	-225.00177	156.12822	407.40748	-156.23162	161.80286	290.53097	-164.74263	2.61426	488.51132	-568.39356	-78.44256	397.83623	-570.29000	237.22102	791.32954	-186.47346	253.72011	680.74069	-205.44986	230.57976	644.79324	-153.10874	151.53562	762.28056	-117.36643	173.40821	649.73496	-142.78235	141.20156	781.17402	-556.62739	169.00915	646.80204	-566.04456	33.25219	758.74736	-560.19261	59.50255	623.08957	-565.66931	158.63091	1042.75123	-202.12960	-54.97913	1071.54309	-267.36300	131.46249	1021.72373	-464.51033	-65.08078	1066.51074	-363.34714	33.64945	1570.49850	-319.74504	89.04951	1484.46193	-136.43289	106.94424	1521.44974	-496.97873	165.47014	1480.90694	-294.32900	164.72815	1480.90985	-341.81684	82.33063	1313.17900	-69.86223	-15.39725	1101.07653	-118.35311	3.29660	1120.95563	-39.47944	96.69520	972.92408	-31.25166	128.07605	855.20973	-23.52822	95.30712	845.49698	2.54883	94.96192	1349.15341	-583.81035	-13.40285	1151.79079	-550.26477	24.35526	1164.84673	-622.48431	92.92524	1011.22645	-609.74680	98.80923	892.49494	-639.24714	72.26156	902.50612	-679.20222	72.89861	961.11453	-222.50974	53.51413	934.45422	-433.34829	82.01471	957.75517	-227.50042	63.75979	948.65900	-400.95898	
23	0.22000000	188.35219	545.83331	-182.21786	221.56083	418.08433	-198.73945	118.40875	95.02665	-225.27874	55.18534	66.82433	-278.01755	244.38144	35.19598	-168.86972	289.89960	59.15536	-237.14041	110.56229	534.52249	-557.46434	81.85213	428.02146	-539.79286	-234.78097	291.03368	-486.95084	-271.82646	333.04963	-422.23690	-249.26793	132.46713	-518.77094	-204.52694	112.09053	-458.94729	219.99472	306.61166	-224.36448	158.40523	407.43439	-155.75752	163.13742	290.51415	-164.30185	24.68879	492.54768	-567.78900	-56.48785	401.90962	-569.41944	244.55080	790.68703	-185.88897	259.29305	679.63214	-204.91243	236.25077	644.24799	-152.36794	158.94496	762.72588	-116.35293	179.19181	649.88199	-141.83113	155.70309	785.15011	-556.19851	186.99760	651.55467	-566.17461	48.22928	760.70976	-558.67367	78.17526	625.25860	-564.91332	168.52054	1044.14866	-200.63500	-45.13408	1072.87649	-265.95676	142.08018	1024.06046	-463.28204	-55.16532	1068.02631	-361.97709	43.98318	1572.06437	-318.59717	100.01638	1485.90838	-135.56811	115.97874	1522.81192	-496.42728	175.84049	1482.16777	-293.91382	174.86550	1482.23092	-341.45506	94.30466	1314.67702	-69.01065	-3.07374	1102.08752	-116.19770	16.54268	1122.11436	-37.61575	111.06142	974.82054	-30.53206	143.42111	857.42358	-23.13301	111.06360	847.51263	3.44618	100.62745	1350.78928	-583.83237	-9.39416	1154.64633	-548.70549	27.00300	1167.48868	-621.61641	93.87399	1012.92498	-610.17186	97.38415	894.01352	-639.80723	71.01675	904.86869	-679.73644	83.00750	962.44143	-221.43047	63.99464	936.53891	-432.38987	92.20032	959.32517	-226.28771	74.06916	950.55781	-399.85534	
24	0.23000000	192.06304	545.74228	-181.51865	223.96656	417.69400	-198.06398	118.57176	95.32766	-225.19390	55.11258	67.11962	-277.87894	244.37916	35.11930	-168.77652	289.98093	59.05242	-237.08113	131.79806	538.35750	-557.13100	104.04249	432.18416	-539.67782	-212.15964	293.37737	-485.15723	-250.28037	333.77373	-420.30388	-221.93419	134.62547	-517.89911	-176.45462	115.30905	-458.29215	221.55904	306.24818	-223.77408	160.54186	407.48373	-155.32316	164.38138	290.53846	-163.91038	46.31793	496.62230	-566.77798	-34.63258	405.69588	-568.33126	251.62562	789.92477	-185.30043	264.66614	678.46962	-204.34164	241.62639	643.63608	-151.64387	166.08592	763.10373	-115.40043	184.70536	649.99352	-140.95771	170.19951	789.35016	-555.54523	204.78496	656.53064	-566.02230	63.13005	762.70408	-557.30709	96.76679	627.61878	-564.20671	178.11338	1045.50121	-199.01035	-35.41320	1074.13776	-264.65801	152.80843	1026.47401	-461.91752	-45.31511	1069.61871	-360.76635	54.22219	1573.62330	-317.69477	110.95162	1487.57036	-134.90585	124.87680	1524.11620	-496.03367	186.11031	1483.46411	-293.72380	184.89707	1483.53760	-341.30605	106.21193	1316.43749	-68.27095	9.27668	1103.32031	-114.17363	29.67282	1123.56216	-35.85334	125.35946	977.02683	-29.75947	158.69063	859.94778	-22.60760	126.73171	849.86649	4.41965	106.02796	1352.53947	-584.08495	-5.64817	1157.59989	-547.61196	29.62129	1170.21703	-621.06651	94.88947	1014.80988	-610.51021	96.41283	895.74513	-640.08786	70.23340	907.26173	-680.02264	92.87996	963.71889	-220.36248	74.53524	938.69846	-431.48047	102.26855	960.72452	-225.12058	84.37682	952.55787	-398.78875	
25	0.24000000	195.51952	545.67095	-180.86549	226.24437	417.34872	-197.50796	118.73069	95.64239	-225.10993	55.00163	67.40583	-277.73312	244.38206	35.04282	-168.69747	290.04100	58.95960	-237.02716	152.68845	542.30301	-556.48882	126.12431	436.39533	-539.29656	-189.03544	294.33803	-483.52532	-228.57427	333.06860	-418.68791	-193.47346	135.33007	-516.80110	-147.27441	117.44307	-457.29056	223.08557	305.96553	-223.31184	162.63870	407.54675	-154.92132	165.64242	290.59509	-163.58431	67.58784	500.50090	-565.46589	-12.75206	408.93892	-567.08792	258.49205	789.05836	-184.70932	269.95001	677.30656	-203.74663	246.70743	642.95953	-150.96416	172.98235	763.42375	-114.52484	189.95921	650.08674	-140.19115	184.75498	793.73681	-554.70720	222.42879	661.70642	-565.54441	78.04447	764.66361	-556.19041	115.26696	630.19071	-563.62461	187.44227	1046.80126	-197.27232	-25.79781	1075.33902	-263.47807	163.56210	1028.88287	-460.37566	-35.54383	1071.23880	-359.70609	64.36941	1575.15884	-317.02408	121.87038	1489.42504	-134.43762	133.65323	1525.36930	-495.79237	196.28631	1484.82233	-293.74160	194.84225	1484.84508	-341.34707	118.06364	1318.43462	-67.62598	21.63468	1104.76611	-112.26755	42.67088	1125.27491	-34.18528	139.56552	979.51976	-28.92235	173.86634	862.75870	-21.94781	142.28503	852.52295	5.45413	111.24247	1354.38076	-584.53410	-2.08273	1160.64370	-546.89638	32.30652	1173.00574	-620.76236	96.00614	1016.82699	-610.77732	95.88189	897.63127	-640.20072	69.80569	909.64247	-680.13035	102.51601	964.95063	-219.27272	85.08632	940.85809	-430.57160	112.21136	962.00930	-223.92887	94.61666	954.60454	-397.65168	
